<svg version="1.1" xmlns="http://www.w3.org/2000/svg" viewBox="0 0 1616.179943739588 370.1652943004262" width="1616.179943739588" height="370.1652943004262">
  <!-- svg-source:excalidraw -->
  
  <defs>
    <style class="style-fonts">
      @font-face {
        font-family: "Virgil";
        src: url("https://excalidraw.com/Virgil.woff2");
      }
      @font-face {
        font-family: "Cascadia";
        src: url("https://excalidraw.com/Cascadia.woff2");
      }
      @font-face {
        font-family: "Assistant";
        src: url("https://excalidraw.com/Assistant-Regular.woff2");
      }
    </style>
    
  </defs>
  <rect x="0" y="0" width="1616.179943739588" height="370.1652943004262" fill="#ffffff"></rect><g stroke-linecap="round" transform="translate(679.1018936730792 146.36360862038345) rotate(0 121.07437133789065 37.190073186701)"><path d="M18.6 0 C61.78 -1.79, 107.62 -0.19, 223.55 0 M18.6 0 C81.4 -0.61, 144.51 -0.3, 223.55 0 M223.55 0 C235.01 -0.83, 241.25 6.52, 242.15 18.6 M223.55 0 C236.07 -0.38, 240.94 8.06, 242.15 18.6 M242.15 18.6 C243.12 28.29, 242.23 37.71, 242.15 55.79 M242.15 18.6 C242.85 32.79, 242.61 46.01, 242.15 55.79 M242.15 55.79 C242.32 66.68, 234 74.97, 223.55 74.38 M242.15 55.79 C243.71 69.6, 237.03 73.18, 223.55 74.38 M223.55 74.38 C169.78 73.02, 119.47 72.15, 18.6 74.38 M223.55 74.38 C158.11 76.04, 91.37 76.6, 18.6 74.38 M18.6 74.38 C5.72 74.63, 0.68 69.11, 0 55.79 M18.6 74.38 C5.58 75.28, 1.28 67.1, 0 55.79 M0 55.79 C0.83 40.26, -1.55 25.75, 0 18.6 M0 55.79 C-0.22 46.21, -0.25 36.92, 0 18.6 M0 18.6 C-1.44 7.59, 5.79 0.45, 18.6 0 M0 18.6 C1.15 8.28, 7.19 2.27, 18.6 0" stroke="#1e1e1e" stroke-width="2" fill="none"></path></g><g transform="translate(728.5863373376301 171.05368180708444) rotate(0 71.58992767333984 12.499999999999972)"><text x="71.58992767333984" y="0" font-family="Virgil, Segoe UI Emoji" font-size="20px" fill="#1e1e1e" text-anchor="middle" style="white-space: pre;" direction="ltr" dominant-baseline="text-before-edge">Load Balancer</text></g><g stroke-linecap="round"><g transform="translate(902.2423466649116 165.3718705610795) rotate(0 85.95042835582387 -33.05783358487216)"><path d="M-0.38 -0.57 C28.34 -11.34, 143.08 -54.89, 171.6 -65.71 M1.62 1.75 C30.22 -9.3, 141.93 -56.07, 170.5 -67.62" stroke="#1e1e1e" stroke-width="2" fill="none"></path></g><g transform="translate(902.2423466649116 165.3718705610795) rotate(0 85.95042835582387 -33.05783358487216)"><path d="M152.04 -50.76 C155.62 -55.2, 161.63 -60.64, 170.5 -67.62 M152.04 -50.76 C159.1 -56.98, 164.39 -62.33, 170.5 -67.62" stroke="#1e1e1e" stroke-width="2" fill="none"></path></g><g transform="translate(902.2423466649116 165.3718705610795) rotate(0 85.95042835582387 -33.05783358487216)"><path d="M145.52 -66.58 C150.52 -67.24, 158.07 -68.93, 170.5 -67.62 M145.52 -66.58 C154.93 -67.26, 162.5 -67.05, 170.5 -67.62" stroke="#1e1e1e" stroke-width="2" fill="none"></path></g></g><mask></mask><g stroke-linecap="round"><g transform="translate(907.2010647046843 205.04133744673294) rotate(0 90.90906316583806 20.66114945845169)"><path d="M0.66 -0.3 C31.05 6.61, 152.44 33.37, 182.82 40.29 M-0.45 -1.5 C29.82 5.63, 151.87 33.96, 182.4 41.28" stroke="#1e1e1e" stroke-width="2" fill="none"></path></g><g transform="translate(907.2010647046843 205.04133744673294) rotate(0 90.90906316583806 20.66114945845169)"><path d="M157.57 44.22 C165.57 44.75, 172.81 43.93, 182.4 41.28 M157.57 44.22 C164.83 44.13, 171.97 42.57, 182.4 41.28" stroke="#1e1e1e" stroke-width="2" fill="none"></path></g><g transform="translate(907.2010647046843 205.04133744673294) rotate(0 90.90906316583806 20.66114945845169)"><path d="M161.49 27.57 C167.99 33.8, 173.89 38.66, 182.4 41.28 M161.49 27.57 C167.78 32.31, 173.79 35.55, 182.4 41.28" stroke="#1e1e1e" stroke-width="2" fill="none"></path></g></g><mask></mask><g stroke-linecap="round" transform="translate(1074.1432033765593 21.570240367542624) rotate(0 66.52895840731532 63.636377507990034)"><path d="M51.99 1.73 C61.2 -1.17, 73.83 0.5, 83.91 3.09 C93.99 5.69, 104.88 10.67, 112.45 17.28 C120.02 23.89, 126.13 33.37, 129.33 42.78 C132.54 52.19, 133.16 64.16, 131.68 73.75 C130.21 83.34, 126.55 92.59, 120.47 100.32 C114.39 108.05, 104.48 115.72, 95.2 120.13 C85.91 124.55, 74.84 127.01, 64.78 126.82 C54.72 126.63, 43.7 123.87, 34.82 118.98 C25.94 114.09, 17.22 105.8, 11.49 97.47 C5.76 89.15, 1.51 78.59, 0.46 69.01 C-0.6 59.42, 1.44 48.98, 5.18 39.96 C8.93 30.93, 14.27 21.36, 22.93 14.87 C31.59 8.38, 50.73 3.13, 57.14 1.03 C63.56 -1.07, 61.11 1.22, 61.42 2.27 M96.08 7.12 C105.38 10.42, 113.95 16.72, 120.16 24.77 C126.36 32.83, 131.9 45.47, 133.32 55.44 C134.75 65.42, 132.14 75.75, 128.71 84.62 C125.28 93.49, 120.2 102.14, 112.74 108.65 C105.28 115.16, 94.16 121, 83.95 123.67 C73.74 126.34, 61.38 126.68, 51.5 124.69 C41.62 122.69, 32.65 117.89, 24.69 111.68 C16.73 105.48, 7.98 96.2, 3.74 87.47 C-0.5 78.73, -2.07 68.97, -0.75 59.26 C0.56 49.54, 5.86 37.89, 11.63 29.19 C17.4 20.49, 24.89 11.82, 33.87 7.04 C42.84 2.26, 55.16 0.44, 65.46 0.5 C75.75 0.56, 90.48 6.37, 95.63 7.39 C100.78 8.41, 97.04 6.05, 96.37 6.64" stroke="#1e1e1e" stroke-width="2" fill="none"></path></g><g transform="translate(1101.8691277889209 60.20890380948583) rotate(0 38.75995635986328 25)"><text x="38.75995635986328" y="0" font-family="Virgil, Segoe UI Emoji" font-size="20px" fill="#1e1e1e" text-anchor="middle" style="white-space: pre;" direction="ltr" dominant-baseline="text-before-edge">Service </text><text x="38.75995635986328" y="25" font-family="Virgil, Segoe UI Emoji" font-size="20px" fill="#1e1e1e" text-anchor="middle" style="white-space: pre;" direction="ltr" dominant-baseline="text-before-edge">A</text></g><g stroke-linecap="round" transform="translate(1095.465585523221 180.24789983575994) rotate(0 66.52895840731532 63.636377507990005)"><path d="M43.86 4.32 C52.79 0.18, 65.51 -0.24, 75.71 1.11 C85.92 2.46, 96.91 6.71, 105.11 12.41 C113.31 18.11, 120.09 26.75, 124.91 35.32 C129.73 43.88, 133.93 53.95, 134.01 63.82 C134.09 73.68, 130.32 85.86, 125.41 94.5 C120.51 103.14, 113.15 110.19, 104.58 115.66 C96.01 121.13, 84.42 126.26, 73.99 127.34 C63.55 128.41, 51.62 125.64, 41.99 122.09 C32.36 118.54, 22.9 113.36, 16.21 106.05 C9.52 98.75, 4.34 87.89, 1.87 78.27 C-0.61 68.65, -1.25 57.96, 1.34 48.31 C3.94 38.66, 9.82 27.88, 17.43 20.38 C25.03 12.89, 41.84 6.01, 46.99 3.35 C52.15 0.69, 48.31 3.58, 48.34 4.39 M78.49 1.79 C87.87 2.82, 97.51 8.47, 105.36 14.3 C113.21 20.13, 120.91 27.9, 125.58 36.75 C130.25 45.61, 133.62 57.74, 133.38 67.42 C133.14 77.11, 129.21 86.28, 124.14 94.87 C119.07 103.46, 111.47 113.37, 102.95 118.95 C94.42 124.53, 83.53 127.98, 72.98 128.33 C62.42 128.68, 49.17 124.94, 39.61 121.05 C30.06 117.17, 22.09 112.67, 15.64 105.02 C9.2 97.37, 3.06 85.09, 0.92 75.15 C-1.21 65.22, -0.32 54.82, 2.84 45.43 C6 36.04, 12.76 25.78, 19.88 18.83 C26.99 11.88, 35.94 6.54, 45.53 3.73 C55.11 0.92, 71.98 2.07, 77.39 1.98 C82.79 1.88, 78.26 2.24, 77.93 3.17" stroke="#1e1e1e" stroke-width="2" fill="none"></path></g><g transform="translate(1123.1915099355826 218.88656327770315) rotate(0 38.75995635986328 25)"><text x="38.75995635986328" y="0" font-family="Virgil, Segoe UI Emoji" font-size="20px" fill="#1e1e1e" text-anchor="middle" style="white-space: pre;" direction="ltr" dominant-baseline="text-before-edge">Service </text><text x="38.75995635986328" y="25" font-family="Virgil, Segoe UI Emoji" font-size="20px" fill="#1e1e1e" text-anchor="middle" style="white-space: pre;" direction="ltr" dominant-baseline="text-before-edge">B</text></g><g stroke-linecap="round"><g transform="translate(1196.4572126095138 105.04130970348012) rotate(0 75.61983975497162 -5.3718983043324045)"><path d="M0.67 -0.18 C26.01 -1.88, 126.27 -8.13, 151.32 -9.99 M-0.44 -1.32 C24.82 -3.37, 125.33 -10.21, 150.41 -11.72" stroke="#1e1e1e" stroke-width="2" fill="none"></path></g><g transform="translate(1196.4572126095138 105.04130970348012) rotate(0 75.61983975497162 -5.3718983043324045)"><path d="M127.52 -1.67 C132.65 -4.06, 139.64 -7.07, 150.41 -11.72 M127.52 -1.67 C132.88 -3.33, 138.86 -5.73, 150.41 -11.72" stroke="#1e1e1e" stroke-width="2" fill="none"></path></g><g transform="translate(1196.4572126095138 105.04130970348012) rotate(0 75.61983975497162 -5.3718983043324045)"><path d="M126.41 -18.73 C131.84 -17.07, 139.09 -16.02, 150.41 -11.72 M126.41 -18.73 C131.95 -16.15, 138.2 -14.32, 150.41 -11.72" stroke="#1e1e1e" stroke-width="2" fill="none"></path></g></g><mask></mask><g stroke-linecap="round"><g transform="translate(1223.729939882241 252.97518643465907) rotate(0 72.42544034315421 10.836718549683553)"><path d="M-0.21 -0.68 C23.69 3.18, 119.96 18.23, 144.2 22.09 M-1.79 1.58 C22.45 5.16, 122.17 17.02, 146.57 20.18" stroke="#1e1e1e" stroke-width="2" fill="none"></path></g><g transform="translate(1223.729939882241 252.97518643465907) rotate(0 72.42544034315421 10.836718549683553)"><path d="M122.2 25.78 C129.95 22.71, 140.61 22.35, 146.57 20.18 M122.2 25.78 C131.9 23.48, 139.78 22.64, 146.57 20.18" stroke="#1e1e1e" stroke-width="2" fill="none"></path></g><g transform="translate(1223.729939882241 252.97518643465907) rotate(0 72.42544034315421 10.836718549683553)"><path d="M124.31 8.81 C131.14 11.88, 141.04 17.68, 146.57 20.18 M124.31 8.81 C133.3 12.74, 140.41 18.13, 146.57 20.18" stroke="#1e1e1e" stroke-width="2" fill="none"></path></g></g><mask></mask><g stroke-linecap="round" transform="translate(1342.7382850526958 10) rotate(0 116.94213867187494 82.64462557705966)"><path d="M146.25 20.75 C164.32 36.07, 184.76 48.03, 204.63 62.25 M146.25 20.75 C166.34 35.84, 187.28 48.96, 204.63 62.25 M204.63 62.25 C235.15 81.15, 234.7 83.38, 204.63 103.75 M204.63 62.25 C235.29 84.73, 234.15 85.24, 204.63 103.75 M204.63 103.75 C180.38 120.09, 158.35 138.01, 146.25 144.54 M204.63 103.75 C191.47 112.77, 180.1 122.16, 146.25 144.54 M146.25 144.54 C117.74 164.06, 118.92 166.14, 87.75 144.54 M146.25 144.54 C116.66 165.89, 117.65 167.09, 87.75 144.54 M87.75 144.54 C73.91 134.78, 59.56 125.97, 29.25 103.75 M87.75 144.54 C71.7 133, 53.71 121.76, 29.25 103.75 M29.25 103.75 C-1.23 83.58, -1.56 81.6, 29.25 62.25 M29.25 103.75 C0.52 81.76, 0.5 82.19, 29.25 62.25 M29.25 62.25 C48.23 46.77, 69.84 35.32, 87.75 20.75 M29.25 62.25 C50.52 46.55, 74.02 30.6, 87.75 20.75 M87.75 20.75 C115.28 -0.34, 118.22 -0.88, 146.25 20.75 M87.75 20.75 C118.2 2.11, 118.1 0.09, 146.25 20.75" stroke="#1e1e1e" stroke-width="2" fill="none"></path></g><g transform="translate(1410.269412982383 67.82231278852981) rotate(0 49.43994140625 25)"><text x="49.43994140625" y="0" font-family="Virgil, Segoe UI Emoji" font-size="20px" fill="#1e1e1e" text-anchor="middle" style="white-space: pre;" direction="ltr" dominant-baseline="text-before-edge">Database</text><text x="49.43994140625" y="25" font-family="Virgil, Segoe UI Emoji" font-size="20px" fill="#1e1e1e" text-anchor="middle" style="white-space: pre;" direction="ltr" dominant-baseline="text-before-edge">A</text></g><g stroke-linecap="round" transform="translate(1360.8374283410478 203.96695223721593) rotate(0 122.67125769927009 78.09917103160512)"><path d="M153.75 19.75 C178.93 34.54, 200.85 50.6, 214.59 59.25 M153.75 19.75 C167.71 28.71, 180.11 37.13, 214.59 59.25 M214.59 59.25 C247.17 79.7, 244.36 80.52, 214.59 98.75 M214.59 59.25 C243.14 78.57, 245.71 80.07, 214.59 98.75 M214.59 98.75 C190.04 111.95, 168.47 128.97, 153.75 136.45 M214.59 98.75 C191.04 113.39, 167.93 128.28, 153.75 136.45 M153.75 136.45 C122.41 155.05, 122.93 156.5, 92.25 136.45 M153.75 136.45 C122.57 158.24, 122.32 154.98, 92.25 136.45 M92.25 136.45 C77.6 127.68, 64.42 119.12, 30.75 98.75 M92.25 136.45 C69.4 122.05, 46.66 107.89, 30.75 98.75 M30.75 98.75 C1.51 78.17, -0.04 78.21, 30.75 59.25 M30.75 98.75 C-0.36 80.9, -0.24 77.14, 30.75 59.25 M30.75 59.25 C46.66 46.58, 63.82 39.09, 92.25 19.75 M30.75 59.25 C53.32 45.55, 77.05 29.83, 92.25 19.75 M92.25 19.75 C122.37 -0.78, 121.05 0.24, 153.75 19.75 M92.25 19.75 C121.94 -1.67, 123.37 -1.51, 153.75 19.75" stroke="#1e1e1e" stroke-width="2" fill="none"></path></g><g transform="translate(1429.2331234138273 257.01653775301855) rotate(0 54.43993377685547 25)"><text x="54.43993377685547" y="0" font-family="Virgil, Segoe UI Emoji" font-size="20px" fill="#1e1e1e" text-anchor="middle" style="white-space: pre;" direction="ltr" dominant-baseline="text-before-edge">Database </text><text x="54.43993377685547" y="25" font-family="Virgil, Segoe UI Emoji" font-size="20px" fill="#1e1e1e" text-anchor="middle" style="white-space: pre;" direction="ltr" dominant-baseline="text-before-edge">B</text></g><g stroke-linecap="round" transform="translate(368.02635641741807 140.68092705044336) rotate(0 124.27359075843015 39.94509811599528)"><path d="M19.97 0 C78.38 -2.29, 136.91 -1.76, 228.57 0 M19.97 0 C94.64 1.18, 168.47 0.33, 228.57 0 M228.57 0 C240.4 -1.49, 248.33 4.92, 248.55 19.97 M228.57 0 C243.76 0, 247.93 7.16, 248.55 19.97 M248.55 19.97 C247.94 27.45, 249.8 36.78, 248.55 59.92 M248.55 19.97 C248.05 33.29, 249.79 48.18, 248.55 59.92 M248.55 59.92 C250.07 74.99, 241.76 81.34, 228.57 79.89 M248.55 59.92 C249.23 72.16, 239.81 77.97, 228.57 79.89 M228.57 79.89 C145.5 82.63, 61.02 82.09, 19.97 79.89 M228.57 79.89 C178.43 81.94, 127.2 81.9, 19.97 79.89 M19.97 79.89 C8.29 78.47, -0.9 72.76, 0 59.92 M19.97 79.89 C7.64 80.2, 1.07 71.04, 0 59.92 M0 59.92 C-0.12 49.73, -0.47 37.91, 0 19.97 M0 59.92 C-0.52 49.18, -0.77 37.99, 0 19.97 M0 19.97 C-0.32 6.62, 8.25 -0.44, 19.97 0 M0 19.97 C0.74 7.72, 7.59 -0.62, 19.97 0" stroke="#1e1e1e" stroke-width="2" fill="none"></path></g><g transform="translate(425.550015840399 168.12602516643864) rotate(0 66.74993133544922 12.5)"><text x="66.74993133544922" y="0" font-family="Virgil, Segoe UI Emoji" font-size="20px" fill="#1e1e1e" text-anchor="middle" style="white-space: pre;" direction="ltr" dominant-baseline="text-before-edge">API Gateway</text></g><g stroke-linecap="round" transform="translate(10 140.68099326921202) rotate(0 133.64341407720502 36.49304749032524)"><path d="M18.25 0 C75.83 -0.98, 130.38 -1.01, 249.04 0 M18.25 0 C73.49 0.96, 127.47 1.45, 249.04 0 M249.04 0 C261.7 1.14, 267.8 7.85, 267.29 18.25 M249.04 0 C262.83 -0.22, 267.37 7.69, 267.29 18.25 M267.29 18.25 C267.5 30.41, 266.75 40.04, 267.29 54.74 M267.29 18.25 C266.84 26.38, 266.81 34.25, 267.29 54.74 M267.29 54.74 C268.45 67.81, 261.53 72.17, 249.04 72.99 M267.29 54.74 C265.27 66.57, 261.73 71.9, 249.04 72.99 M249.04 72.99 C202.42 72.67, 156.56 72.53, 18.25 72.99 M249.04 72.99 C157.37 73.16, 66.67 74.32, 18.25 72.99 M18.25 72.99 C5.8 74.32, 0.84 66.37, 0 54.74 M18.25 72.99 C8.28 71.17, -0.53 68.93, 0 54.74 M0 54.74 C-0.87 43.48, 1.21 29.82, 0 18.25 M0 54.74 C-0.64 44.49, 1.06 34.11, 0 18.25 M0 18.25 C-1.17 4.89, 7.18 -1, 18.25 0 M0 18.25 C0.69 6.64, 7.77 0.5, 18.25 0" stroke="#1e1e1e" stroke-width="2" fill="none"></path></g><g transform="translate(116.59344154302534 164.67404075953726) rotate(0 27.049972534179688 12.5)"><text x="27.049972534179688" y="0" font-family="Virgil, Segoe UI Emoji" font-size="20px" fill="#1e1e1e" text-anchor="middle" style="white-space: pre;" direction="ltr" dominant-baseline="text-before-edge">Client</text></g><g stroke-linecap="round"><g transform="translate(280.2457608002298 179.14658199316244) rotate(0 40.93137701015394 0.4931311697332603)"><path d="M1.11 0.45 C14.74 0.53, 67.46 0.1, 80.92 0.17 M0.23 -0.36 C14.3 -0.11, 69.66 0.87, 83.14 1.29" stroke="#1e1e1e" stroke-width="2" fill="none"></path></g><g transform="translate(280.2457608002298 179.14658199316244) rotate(0 40.93137701015394 0.4931311697332603)"><path d="M59.45 9.29 C65.65 5.66, 68.97 5.37, 83.14 1.29 M59.45 9.29 C66.18 7.32, 74.06 5.3, 83.14 1.29" stroke="#1e1e1e" stroke-width="2" fill="none"></path></g><g transform="translate(280.2457608002298 179.14658199316244) rotate(0 40.93137701015394 0.4931311697332603)"><path d="M59.85 -7.81 C65.9 -7.51, 69.14 -3.89, 83.14 1.29 M59.85 -7.81 C66.54 -4.81, 74.31 -1.86, 83.14 1.29" stroke="#1e1e1e" stroke-width="2" fill="none"></path></g></g><mask></mask><g stroke-linecap="round"><g transform="translate(620.5187170446748 184.07809234680082) rotate(0 25.150616719156574 0)"><path d="M0.48 -0.49 C8.77 -0.71, 42.71 -0.81, 50.9 -0.65 M-0.72 -1.79 C7.35 -1.92, 42.06 0.52, 50.26 0.54" stroke="#1e1e1e" stroke-width="2" fill="none"></path></g><g transform="translate(620.5187170446748 184.07809234680082) rotate(0 25.150616719156574 0)"><path d="M26.44 8.12 C35.11 5.99, 44.36 0.86, 50.26 0.54 M26.44 8.12 C34.02 6.32, 43.06 3.33, 50.26 0.54" stroke="#1e1e1e" stroke-width="2" fill="none"></path></g><g transform="translate(620.5187170446748 184.07809234680082) rotate(0 25.150616719156574 0)"><path d="M27.14 -8.97 C35.63 -4.26, 44.59 -2.56, 50.26 0.54 M27.14 -8.97 C34.47 -4.98, 43.27 -2.18, 50.26 0.54" stroke="#1e1e1e" stroke-width="2" fill="none"></path></g></g><mask></mask></svg>